<?xml version="1.0" encoding="utf-8"?>
<!-- Generator: Adobe Illustrator 17.0.0, SVG Export Plug-In . SVG Version: 6.00 Build 0)  -->
<!DOCTYPE svg PUBLIC "-//W3C//DTD SVG 1.1//EN" "http://www.w3.org/Graphics/SVG/1.1/DTD/svg11.dtd">
<svg version="1.1" id="Capa_1" xmlns="http://www.w3.org/2000/svg" xmlns:xlink="http://www.w3.org/1999/xlink" x="0px" y="0px"
	 width="200px" height="200px" viewBox="162.466 162.465 200 200" enable-background="new 162.466 162.465 200 200"
	 xml:space="preserve">
<g>
	<g>
		<path fill="#FFFFFF" d="M249.36,257.75c0-2.544-0.984-4.875-2.854-6.749l-57.028-57.025c-1.865-1.87-4.202-2.856-6.754-2.856
			c-2.556,0-4.893,0.988-6.749,2.854l-6.121,6.121c-1.866,1.868-2.852,4.201-2.852,6.743c0,2.556,0.988,4.893,2.854,6.749
			l44.162,44.163l-44.166,44.168c-1.866,1.868-2.852,4.203-2.852,6.747c0,2.553,0.988,4.888,2.854,6.745l6.101,6.101
			c1.861,1.879,4.203,2.872,6.769,2.872c2.562,0,4.899-0.99,6.749-2.854l57.037-57.032
			C248.376,262.628,249.36,260.297,249.36,257.75z"/>
		<path fill="#FFFFFF" d="M348.45,307.016H230.96c-2.62,0-4.951,0.94-6.758,2.738c-1.781,1.79-2.722,4.12-2.722,6.74v7.833
			c0,2.638,0.948,4.973,2.725,6.745c1.788,1.792,4.125,2.738,6.756,2.738h117.49c2.633,0,4.968-0.948,6.74-2.727
			c1.792-1.785,2.74-4.122,2.74-6.758v-7.834c0-2.622-0.942-4.952-2.742-6.762C353.401,307.956,351.07,307.016,348.45,307.016z"/>
	</g>
</g>
</svg>
