<?xml version="1.0" encoding="utf-8"?>
<!-- Generator: Adobe Illustrator 17.0.0, SVG Export Plug-In . SVG Version: 6.00 Build 0)  -->
<!DOCTYPE svg PUBLIC "-//W3C//DTD SVG 1.1//EN" "http://www.w3.org/Graphics/SVG/1.1/DTD/svg11.dtd">
<svg version="1.1" id="Capa_1" xmlns="http://www.w3.org/2000/svg" xmlns:xlink="http://www.w3.org/1999/xlink" x="0px" y="0px"
	 width="80px" height="60px" viewBox="0 8.12 80 60" enable-background="new 0 8.12 80 60" xml:space="preserve">
<g>
	<g>
		<path fill="#FFFFFF" d="M34.509,36.137c0-1.07-0.412-2.05-1.196-2.838L9.418,9.321C8.637,8.535,7.658,8.12,6.588,8.12
			c-1.071,0-2.05,0.415-2.828,1.2l-2.565,2.574c-0.782,0.785-1.195,1.766-1.195,2.835c0,1.075,0.414,2.057,1.196,2.838l18.504,18.57
			L1.195,54.71C0.413,55.495,0,56.477,0,57.547c0,1.074,0.414,2.055,1.196,2.836l2.556,2.565c0.78,0.79,1.761,1.208,2.836,1.208
			c1.073,0,2.053-0.416,2.828-1.2l23.898-23.982C34.097,38.189,34.509,37.208,34.509,36.137z"/>
		<path fill="#FFFFFF" d="M76.027,56.853H26.799c-1.098,0-2.074,0.395-2.832,1.151c-0.746,0.753-1.141,1.732-1.141,2.834v3.294
			c0,1.109,0.397,2.091,1.142,2.836c0.749,0.754,1.728,1.151,2.831,1.151h49.228c1.103,0,2.082-0.399,2.824-1.147
			C79.603,66.223,80,65.24,80,64.132v-3.294c0-1.103-0.395-2.082-1.149-2.843C78.102,57.249,77.125,56.853,76.027,56.853z"/>
	</g>
</g>
</svg>
