<?xml version="1.0" encoding="utf-8"?>
<!-- Generator: Adobe Illustrator 17.0.0, SVG Export Plug-In . SVG Version: 6.00 Build 0)  -->
<!DOCTYPE svg PUBLIC "-//W3C//DTD SVG 1.1//EN" "http://www.w3.org/Graphics/SVG/1.1/DTD/svg11.dtd">
<svg version="1.1" id="Capa_1" xmlns="http://www.w3.org/2000/svg" xmlns:xlink="http://www.w3.org/1999/xlink" x="0px" y="0px"
	 width="100px" height="100px" viewBox="0.001 1.139 100 100" enable-background="new 0.001 1.139 100 100" xml:space="preserve">
<path fill="#FFFFFF" d="M52.158,62.553l-2.724-6.074c2.596-1.915,4.827-4.297,6.569-7.015l6.202,2.361
	c1.186,0.452,2.511-0.149,2.96-1.339l2.279-6.044c0.216-0.572,0.197-1.207-0.054-1.764s-0.71-0.993-1.28-1.209l-6.202-2.361
	c0.489-3.196,0.389-6.464-0.292-9.627l6.047-2.736c0.555-0.251,0.988-0.714,1.204-1.286c0.216-0.572,0.197-1.207-0.054-1.764
	L64.171,17.8c-0.521-1.161-1.881-1.678-3.036-1.155l-6.047,2.736c-1.906-2.608-4.277-4.849-6.983-6.599l2.35-6.23
	c0.449-1.191-0.148-2.523-1.333-2.974l-6.016-2.29c-0.569-0.216-1.201-0.197-1.756,0.054c-0.555,0.251-0.988,0.714-1.204,1.286
	l-2.349,6.23c-3.185-0.494-6.443-0.392-9.583,0.293L25.49,3.077c-0.25-0.558-0.71-0.993-1.28-1.209
	c-0.569-0.216-1.201-0.197-1.756,0.054l-5.866,2.655c-1.156,0.523-1.671,1.888-1.15,3.05l2.724,6.074
	c-2.596,1.915-4.827,4.297-6.569,7.015L5.39,18.355c-0.569-0.216-1.201-0.197-1.756,0.054c-0.555,0.251-0.988,0.714-1.204,1.286
	l-2.279,6.043c-0.449,1.191,0.148,2.523,1.333,2.974l6.202,2.361c-0.489,3.196-0.389,6.464,0.292,9.627l-6.047,2.736
	c-0.555,0.251-0.988,0.714-1.204,1.286c-0.216,0.572-0.197,1.207,0.054,1.764l2.642,5.893c0.25,0.558,0.71,0.993,1.28,1.209
	c0.57,0.217,1.201,0.198,1.756-0.054l6.047-2.736c1.906,2.609,4.277,4.849,6.983,6.599l-2.35,6.23
	c-0.449,1.191,0.148,2.523,1.333,2.974l6.016,2.29c0.262,0.1,0.538,0.149,0.813,0.149c0.322,0,0.644-0.068,0.943-0.203
	c0.555-0.251,0.988-0.714,1.204-1.286l2.349-6.23c3.185,0.493,6.444,0.392,9.583-0.293l2.723,6.074
	c0.25,0.558,0.71,0.993,1.28,1.209c0.569,0.217,1.202,0.198,1.756-0.054l5.866-2.654C52.163,65.079,52.679,63.714,52.158,62.553z
	 M48.353,40.63c-2.279,6.042-8.13,10.102-14.559,10.102c-1.881,0-3.735-0.343-5.512-1.019c-3.888-1.48-6.97-4.392-8.677-8.201
	c-1.708-3.808-1.837-8.057-0.364-11.963c2.279-6.042,8.13-10.102,14.559-10.102c1.881,0,3.735,0.343,5.512,1.019
	c3.888,1.48,6.97,4.392,8.677,8.2C49.698,32.475,49.827,36.724,48.353,40.63z M99.397,72.122c-0.411-0.451-0.985-0.719-1.593-0.745
	l-4.324-0.186c-0.398-2.05-1.117-4.03-2.127-5.857l3.189-2.94c0.934-0.861,0.996-2.32,0.139-3.258l-3.166-3.466
	c-0.411-0.451-0.985-0.719-1.593-0.745c-0.607-0.023-1.202,0.192-1.651,0.605l-3.188,2.94c-1.726-1.167-3.627-2.056-5.626-2.63
	l0.186-4.344c0.054-1.273-0.929-2.348-2.196-2.403l-4.678-0.202c-1.26-0.048-2.338,0.933-2.392,2.205l-0.186,4.344
	c-2.04,0.4-4.011,1.122-5.83,2.137l-2.927-3.203c-0.411-0.451-0.985-0.719-1.593-0.745c-0.608-0.025-1.202,0.192-1.651,0.605
	l-3.45,3.181c-0.934,0.861-0.996,2.32-0.139,3.258l2.927,3.203c-1.162,1.734-2.047,3.643-2.618,5.652l-4.324-0.186
	c-1.261-0.051-2.338,0.933-2.392,2.205l-0.201,4.7c-0.026,0.611,0.191,1.208,0.602,1.658c0.411,0.451,0.985,0.719,1.593,0.745
	l4.324,0.186c0.398,2.05,1.117,4.03,2.127,5.857l-3.188,2.94c-0.449,0.413-0.715,0.989-0.742,1.6
	c-0.026,0.611,0.191,1.208,0.602,1.658l3.166,3.466c0.411,0.451,0.985,0.719,1.593,0.745c0.606,0.024,1.202-0.192,1.651-0.605
	l3.188-2.94c1.726,1.167,3.627,2.056,5.626,2.63l-0.186,4.344c-0.054,1.273,0.928,2.348,2.195,2.403l4.678,0.202
	c0.033,0.001,0.066,0.002,0.098,0.002c0.574,0,1.128-0.216,1.552-0.607c0.449-0.413,0.715-0.989,0.742-1.6l0.186-4.344
	c2.04-0.4,4.011-1.122,5.83-2.137l2.927,3.203c0.411,0.451,0.985,0.719,1.593,0.745c0.611,0.027,1.203-0.192,1.651-0.605l3.45-3.181
	c0.934-0.861,0.996-2.32,0.139-3.258l-2.927-3.203c1.162-1.734,2.047-3.643,2.618-5.652l4.324,0.186
	c1.265,0.049,2.338-0.933,2.392-2.205l0.201-4.7C100.025,73.169,99.808,72.573,99.397,72.122z M73.537,85.759
	c-5.897-0.254-10.49-5.28-10.237-11.205c0.246-5.772,4.94-10.294,10.686-10.294c0.155,0,0.311,0.003,0.468,0.01
	c5.897,0.254,10.49,5.28,10.237,11.205C84.437,81.404,79.482,86.01,73.537,85.759z"/>
</svg>
