<?xml version="1.0" encoding="iso-8859-1"?>
<!-- Generator: Adobe Illustrator 18.1.1, SVG Export Plug-In . SVG Version: 6.00 Build 0)  -->
<svg version="1.1" id="Capa_1" xmlns="http://www.w3.org/2000/svg" xmlns:xlink="http://www.w3.org/1999/xlink" x="0px" y="0px"
	 viewBox="0 0 100 100" style="enable-background:new 0 0 100 100;" xml:space="preserve">
<g>
	<g>
		<path style="fill:#030104;" d="M95.351,35h-90.7c-4.604,0-4.834,2.241-4.584,4.979L4.194,85.02C4.444,87.759,5.093,90,9.69,90
			h80.621c4.688,0,5.244-2.241,5.494-4.979l4.127-45.041C100.183,37.241,99.954,35,95.351,35z M92.022,24
			c-0.555-2.2-3.275-4-6.047-4H51.903c-2.771,0-6.645-1.588-8.607-3.528l-2.979-2.943C38.354,11.588,34.481,10,31.71,10H15.431
			c-2.771,0-5.289,2.236-5.594,4.97L8.376,28H93.03L92.022,24z"/>
	</g>
</g>
<g>
</g>
<g>
</g>
<g>
</g>
<g>
</g>
<g>
</g>
<g>
</g>
<g>
</g>
<g>
</g>
<g>
</g>
<g>
</g>
<g>
</g>
<g>
</g>
<g>
</g>
<g>
</g>
<g>
</g>
</svg>
