<?xml version="1.0" encoding="utf-8"?>
<!-- Generator: Adobe Illustrator 17.0.0, SVG Export Plug-In . SVG Version: 6.00 Build 0)  -->
<!DOCTYPE svg PUBLIC "-//W3C//DTD SVG 1.1//EN" "http://www.w3.org/Graphics/SVG/1.1/DTD/svg11.dtd">
<svg version="1.1" id="Capa_1" xmlns="http://www.w3.org/2000/svg" xmlns:xlink="http://www.w3.org/1999/xlink" x="0px" y="0px"
	 width="84px" height="68px" viewBox="-0.001 50 84 68" enable-background="new -0.001 50 84 68" xml:space="preserve">
<g>
	<g>
		<path fill="#FFFFFF" d="M80.094,71.25H3.906c-3.867,0-4.061,1.905-3.851,4.232l3.467,38.285C3.732,116.095,4.277,118,8.139,118
			h67.722c3.938,0,4.405-1.905,4.615-4.232l3.467-38.285C84.153,73.155,83.961,71.25,80.094,71.25z M77.298,61.9
			c-0.466-1.87-2.751-3.4-5.079-3.4H43.598c-2.328,0-5.582-1.35-7.23-2.999L33.866,53c-1.649-1.65-4.902-3-7.23-3H12.961
			c-2.328,0-4.443,1.901-4.699,4.224L7.035,65.3h71.109L77.298,61.9z"/>
	</g>
</g>
</svg>
