<?xml version="1.0" encoding="utf-8"?>
<!-- Generator: Adobe Illustrator 17.0.0, SVG Export Plug-In . SVG Version: 6.00 Build 0)  -->
<!DOCTYPE svg PUBLIC "-//W3C//DTD SVG 1.1//EN" "http://www.w3.org/Graphics/SVG/1.1/DTD/svg11.dtd">
<svg version="1.1" id="Capa_1" xmlns="http://www.w3.org/2000/svg" xmlns:xlink="http://www.w3.org/1999/xlink" x="0px" y="0px"
	 width="200px" height="200px" viewBox="158.188 158.188 200 200" enable-background="new 158.188 158.188 200 200"
	 xml:space="preserve">
<g>
	<path fill="#FFFFFF" d="M294.078,161.282c-33.737,0-61.014,27.277-61.014,61.014c0,7.178,1.436,14.356,3.589,21.535l-75.371,75.371
		v35.891h35.891v-21.535h21.535v-21.535h21.535l32.302-32.302c6.461,2.153,13.639,3.589,21.535,3.589
		c33.738,0,61.014-27.277,61.014-61.014S327.815,161.282,294.078,161.282z M312.023,225.886c-12.203,0-21.535-9.331-21.535-21.535
		s9.331-21.535,21.535-21.535s21.535,9.331,21.535,21.535S324.227,225.886,312.023,225.886z"/>
</g>
</svg>
