<?xml version="1.0" encoding="utf-8"?>
<!-- Generator: Adobe Illustrator 17.0.0, SVG Export Plug-In . SVG Version: 6.00 Build 0)  -->
<!DOCTYPE svg PUBLIC "-//W3C//DTD SVG 1.1//EN" "http://www.w3.org/Graphics/SVG/1.1/DTD/svg11.dtd">
<svg version="1.1" id="Capa_1" xmlns="http://www.w3.org/2000/svg" xmlns:xlink="http://www.w3.org/1999/xlink" x="0px" y="0px"
	 width="80px" height="80px" viewBox="161.282 161.282 80 80" enable-background="new 161.282 161.282 80 80" xml:space="preserve">
<g>
	<path fill="#FFFFFF" d="M216.096,161.282c-13.926,0-25.185,11.259-25.185,25.185c0,2.963,0.593,5.926,1.481,8.889l-31.111,31.111
		v14.815h14.815v-8.889h8.889v-8.889h8.889l13.333-13.333c2.667,0.889,5.63,1.481,8.889,1.481c13.926,0,25.185-11.259,25.185-25.185
		S230.022,161.282,216.096,161.282z M223.504,187.949c-5.037,0-8.889-3.852-8.889-8.889s3.852-8.889,8.889-8.889
		s8.889,3.852,8.889,8.889S228.541,187.949,223.504,187.949z"/>
</g>
</svg>
