<?xml version="1.0" encoding="utf-8"?>
<!-- Generator: Adobe Illustrator 17.0.0, SVG Export Plug-In . SVG Version: 6.00 Build 0)  -->
<!DOCTYPE svg PUBLIC "-//W3C//DTD SVG 1.1//EN" "http://www.w3.org/Graphics/SVG/1.1/DTD/svg11.dtd">
<svg version="1.1" id="Layer_1" xmlns="http://www.w3.org/2000/svg" xmlns:xlink="http://www.w3.org/1999/xlink" x="0px" y="0px"
	 width="170px" height="40.542px" viewBox="0 0 170 40.542" enable-background="new 0 0 170 40.542" xml:space="preserve">
<g>
	<g>
		<g>
			<g>
				<g>
					<path fill="#E8501D" d="M26.961,37.722H0L12.07,0l5.08,6.585L9.031,31.342h13.515L26.961,37.722z"/>
				</g>
			</g>
			<g>
				<path fill="#04A5C9" d="M42.719,40.542h-8.136L18.158,17.377l2.649-7.653L42.719,40.542z"/>
			</g>
		</g>
	</g>
	<g>
		<path fill="#E8501D" d="M41.114,4.501h2.397v12.212c0,0.292,0.055,0.497,0.167,0.615c0.111,0.118,0.229,0.177,0.354,0.177
			c0.055,0,0.107,0,0.157,0c0.048,0,0.121-0.014,0.219-0.042l0.313,1.792c-0.319,0.139-0.743,0.209-1.271,0.209
			c-0.861,0-1.466-0.257-1.813-0.771c-0.347-0.514-0.521-1.216-0.521-2.105L41.114,4.501L41.114,4.501z"/>
		<path fill="#E8501D" d="M46.324,16.463c0-1.097,0.479-1.945,1.438-2.542c0.959-0.598,2.487-1.014,4.585-1.25
			c0-0.264-0.035-0.518-0.104-0.76c-0.07-0.243-0.177-0.458-0.323-0.646c-0.146-0.188-0.333-0.333-0.563-0.438
			c-0.229-0.104-0.518-0.156-0.865-0.156c-0.514,0-1.01,0.097-1.49,0.292c-0.479,0.195-0.942,0.431-1.386,0.709l-0.875-1.605
			c0.57-0.361,1.205-0.673,1.907-0.938c0.701-0.263,1.462-0.396,2.282-0.396c1.292,0,2.251,0.379,2.876,1.136
			c0.625,0.758,0.938,1.851,0.938,3.282v6.064h-1.959l-0.188-1.125h-0.062c-0.458,0.389-0.948,0.716-1.469,0.979
			c-0.521,0.264-1.087,0.396-1.698,0.396c-0.903,0-1.636-0.274-2.198-0.823C46.605,18.092,46.324,17.366,46.324,16.463z
			 M48.657,16.275c0,0.458,0.135,0.792,0.406,1c0.271,0.208,0.622,0.313,1.052,0.313c0.417,0,0.799-0.097,1.146-0.292
			c0.347-0.194,0.709-0.472,1.083-0.834V14.17c-0.695,0.083-1.278,0.195-1.75,0.333c-0.472,0.139-0.851,0.295-1.136,0.469
			c-0.285,0.174-0.49,0.372-0.615,0.594C48.72,15.789,48.657,16.025,48.657,16.275z"/>
		<path fill="#E8501D" d="M57.66,8.982h1.98l0.167,1.813h0.083c0.361-0.667,0.799-1.177,1.313-1.532
			c0.514-0.354,1.042-0.532,1.584-0.532c0.486,0,0.875,0.07,1.167,0.209l-0.417,2.084c-0.181-0.055-0.348-0.097-0.5-0.125
			c-0.153-0.028-0.341-0.042-0.563-0.042c-0.403,0-0.827,0.157-1.271,0.469c-0.445,0.312-0.827,0.858-1.146,1.636v6.251h-2.397
			L57.66,8.982L57.66,8.982z"/>
		<path fill="#E8501D" d="M64.432,16.463c0-1.097,0.479-1.945,1.438-2.542c0.959-0.598,2.487-1.014,4.585-1.25
			c0-0.264-0.035-0.518-0.104-0.76c-0.07-0.243-0.177-0.458-0.323-0.646c-0.146-0.188-0.333-0.333-0.563-0.438
			c-0.229-0.104-0.518-0.156-0.865-0.156c-0.514,0-1.01,0.097-1.49,0.292c-0.479,0.195-0.942,0.431-1.386,0.709l-0.875-1.605
			c0.57-0.361,1.205-0.673,1.907-0.938c0.701-0.263,1.462-0.396,2.282-0.396c1.292,0,2.251,0.379,2.876,1.136
			c0.625,0.758,0.938,1.851,0.938,3.282v6.064h-1.959l-0.188-1.125h-0.062c-0.458,0.389-0.948,0.716-1.469,0.979
			c-0.521,0.264-1.087,0.396-1.698,0.396c-0.903,0-1.636-0.274-2.198-0.823C64.713,18.092,64.432,17.366,64.432,16.463z
			 M66.766,16.275c0,0.458,0.135,0.792,0.406,1c0.271,0.208,0.622,0.313,1.052,0.313c0.417,0,0.799-0.097,1.146-0.292
			c0.347-0.194,0.709-0.472,1.083-0.834V14.17c-0.695,0.083-1.278,0.195-1.75,0.333c-0.472,0.139-0.851,0.295-1.136,0.469
			c-0.285,0.174-0.49,0.372-0.615,0.594C66.829,15.789,66.766,16.025,66.766,16.275z"/>
		<path fill="#E8501D" d="M74.497,8.982h2.438l1.625,5.314c0.139,0.5,0.282,1.008,0.427,1.521c0.146,0.514,0.288,1.035,0.427,1.563
			h0.083c0.153-0.528,0.299-1.049,0.438-1.563c0.139-0.514,0.285-1.021,0.438-1.521l1.626-5.314h2.313l-3.48,10.232H78.06
			L74.497,8.982z"/>
		<path fill="#E8501D" d="M85.292,14.108c0-0.834,0.132-1.584,0.396-2.251c0.263-0.667,0.615-1.229,1.052-1.688
			c0.437-0.458,0.941-0.813,1.511-1.063s1.153-0.375,1.751-0.375c0.695,0,1.306,0.118,1.834,0.354c0.528,0.237,0.969,0.57,1.323,1
			c0.354,0.431,0.621,0.945,0.802,1.542c0.18,0.598,0.271,1.25,0.271,1.959c0,0.472-0.035,0.847-0.104,1.125h-6.502
			c0.111,0.931,0.434,1.646,0.969,2.147c0.534,0.5,1.219,0.75,2.053,0.75c0.445,0,0.857-0.066,1.24-0.198
			c0.382-0.132,0.76-0.316,1.136-0.552l0.813,1.5c-0.486,0.32-1.028,0.584-1.625,0.792c-0.598,0.209-1.223,0.313-1.875,0.313
			c-0.709,0-1.369-0.122-1.979-0.365c-0.612-0.243-1.146-0.594-1.605-1.052s-0.816-1.018-1.073-1.677
			C85.421,15.71,85.292,14.956,85.292,14.108z M92.148,13.191c0-0.82-0.17-1.459-0.511-1.917c-0.341-0.458-0.865-0.688-1.573-0.688
			c-0.611,0-1.146,0.219-1.604,0.656c-0.458,0.438-0.743,1.087-0.855,1.948L92.148,13.191z"/>
		<path fill="#E8501D" d="M96.523,4.501h2.397v12.212c0,0.292,0.055,0.497,0.167,0.615c0.111,0.118,0.229,0.177,0.354,0.177
			c0.055,0,0.107,0,0.157,0c0.048,0,0.121-0.014,0.219-0.042l0.313,1.792c-0.319,0.139-0.743,0.209-1.271,0.209
			c-0.861,0-1.466-0.257-1.813-0.771c-0.347-0.514-0.521-1.216-0.521-2.105L96.523,4.501L96.523,4.501z"/>
		<path fill="#04A5C9" d="M101.733,16.463c0-1.097,0.479-1.945,1.438-2.542c0.959-0.598,2.487-1.014,4.585-1.25
			c0-0.264-0.035-0.518-0.104-0.76c-0.07-0.243-0.177-0.458-0.323-0.646c-0.146-0.188-0.333-0.333-0.563-0.438
			c-0.229-0.104-0.518-0.156-0.865-0.156c-0.514,0-1.01,0.097-1.49,0.292c-0.479,0.195-0.942,0.431-1.386,0.709l-0.875-1.605
			c0.57-0.361,1.205-0.673,1.907-0.938c0.701-0.263,1.462-0.396,2.282-0.396c1.292,0,2.251,0.379,2.876,1.136
			c0.625,0.758,0.938,1.851,0.938,3.282v6.064h-1.959l-0.188-1.125h-0.062c-0.458,0.389-0.948,0.716-1.469,0.979
			c-0.521,0.264-1.087,0.396-1.698,0.396c-0.903,0-1.636-0.274-2.198-0.823C102.014,18.092,101.733,17.366,101.733,16.463z
			 M104.067,16.275c0,0.458,0.135,0.792,0.406,1c0.271,0.208,0.622,0.313,1.052,0.313c0.417,0,0.799-0.097,1.146-0.292
			c0.347-0.194,0.709-0.472,1.083-0.834V14.17c-0.695,0.083-1.278,0.195-1.75,0.333c-0.472,0.139-0.851,0.295-1.136,0.469
			c-0.285,0.174-0.49,0.372-0.615,0.594C104.129,15.789,104.067,16.025,104.067,16.275z"/>
		<path fill="#04A5C9" d="M113.069,8.982h1.98l0.167,1.375h0.083c0.458-0.445,0.955-0.826,1.49-1.146
			c0.534-0.319,1.157-0.479,1.865-0.479c1.097,0,1.897,0.351,2.397,1.052c0.5,0.702,0.75,1.706,0.75,3.011v6.418h-2.396v-6.105
			c0-0.847-0.125-1.445-0.375-1.792c-0.25-0.347-0.66-0.521-1.229-0.521c-0.445,0-0.837,0.108-1.177,0.323
			c-0.341,0.216-0.726,0.532-1.157,0.948v7.148h-2.397L113.069,8.982L113.069,8.982z"/>
		<path fill="#04A5C9" d="M124.051,21.068c0-0.431,0.125-0.83,0.375-1.198c0.25-0.368,0.611-0.698,1.083-0.99v-0.084
			c-0.264-0.167-0.483-0.389-0.656-0.667c-0.174-0.278-0.261-0.625-0.261-1.042c0-0.403,0.115-0.768,0.344-1.094
			c0.229-0.326,0.49-0.594,0.781-0.803v-0.083c-0.347-0.263-0.656-0.629-0.927-1.094c-0.271-0.465-0.406-1.003-0.406-1.615
			c0-0.583,0.111-1.104,0.333-1.563c0.222-0.458,0.518-0.844,0.886-1.157c0.368-0.313,0.795-0.549,1.281-0.709
			c0.486-0.159,1-0.24,1.542-0.24c0.278,0,0.545,0.025,0.803,0.073c0.257,0.049,0.49,0.108,0.698,0.177h3.668v1.771h-1.875
			c0.167,0.195,0.305,0.441,0.416,0.74c0.111,0.299,0.167,0.629,0.167,0.99c0,0.57-0.101,1.07-0.302,1.5
			c-0.202,0.431-0.476,0.792-0.823,1.083c-0.347,0.292-0.757,0.514-1.229,0.667c-0.472,0.153-0.979,0.229-1.521,0.229
			c-0.222,0-0.452-0.021-0.687-0.062c-0.237-0.042-0.472-0.111-0.709-0.208c-0.153,0.139-0.275,0.278-0.365,0.416
			c-0.091,0.139-0.135,0.327-0.135,0.563c0,0.292,0.122,0.521,0.365,0.687c0.243,0.167,0.677,0.25,1.302,0.25h1.813
			c1.236,0,2.171,0.198,2.803,0.594c0.632,0.396,0.948,1.038,0.948,1.927c0,0.5-0.129,0.972-0.385,1.417
			c-0.257,0.445-0.622,0.826-1.094,1.146c-0.472,0.319-1.046,0.573-1.719,0.76c-0.674,0.188-1.428,0.281-2.261,0.281
			c-0.611,0-1.177-0.056-1.698-0.167c-0.521-0.111-0.969-0.278-1.344-0.5c-0.375-0.222-0.67-0.5-0.886-0.834
			C124.158,21.902,124.051,21.512,124.051,21.068z M126.051,20.714c0,0.458,0.232,0.816,0.698,1.073
			c0.465,0.257,1.108,0.386,1.928,0.386c0.834,0,1.504-0.164,2.011-0.49c0.507-0.327,0.76-0.712,0.76-1.157
			c0-0.403-0.157-0.674-0.469-0.813c-0.312-0.139-0.76-0.208-1.344-0.208h-1.396c-0.556,0-1.021-0.049-1.396-0.146
			C126.315,19.762,126.051,20.214,126.051,20.714z M128.427,14.462c0.486,0,0.903-0.177,1.25-0.532
			c0.347-0.354,0.521-0.865,0.521-1.532c0-0.639-0.17-1.136-0.51-1.49c-0.341-0.354-0.761-0.532-1.261-0.532
			s-0.924,0.174-1.271,0.521c-0.348,0.348-0.521,0.847-0.521,1.5c0,0.667,0.174,1.177,0.521,1.532
			C127.503,14.285,127.927,14.462,128.427,14.462z"/>
		<path fill="#04A5C9" d="M135.47,8.982h2.396v6.105c0,0.847,0.125,1.445,0.375,1.792c0.25,0.348,0.653,0.521,1.209,0.521
			c0.445,0,0.837-0.111,1.177-0.333c0.34-0.222,0.705-0.584,1.094-1.084V8.982h2.396v10.232h-1.959l-0.188-1.5h-0.062
			c-0.445,0.528-0.927,0.952-1.449,1.271c-0.521,0.319-1.136,0.479-1.844,0.479c-1.097,0-1.896-0.35-2.396-1.052
			c-0.5-0.702-0.75-1.705-0.75-3.011V8.982z"/>
		<path fill="#04A5C9" d="M147.161,4.501h2.397v12.212c0,0.292,0.055,0.497,0.167,0.615c0.111,0.118,0.229,0.177,0.354,0.177
			c0.055,0,0.107,0,0.156,0c0.048,0,0.121-0.014,0.219-0.042l0.313,1.792c-0.319,0.139-0.743,0.209-1.271,0.209
			c-0.861,0-1.466-0.257-1.813-0.771c-0.347-0.514-0.521-1.216-0.521-2.105L147.161,4.501L147.161,4.501z"/>
		<path fill="#04A5C9" d="M152.37,16.463c0-1.097,0.479-1.945,1.438-2.542c0.959-0.598,2.487-1.014,4.585-1.25
			c0-0.264-0.035-0.518-0.104-0.76c-0.07-0.243-0.177-0.458-0.323-0.646c-0.146-0.188-0.333-0.333-0.563-0.438
			c-0.229-0.104-0.518-0.156-0.865-0.156c-0.514,0-1.01,0.097-1.49,0.292c-0.479,0.195-0.942,0.431-1.386,0.709l-0.875-1.605
			c0.57-0.361,1.205-0.673,1.907-0.938c0.701-0.263,1.462-0.396,2.282-0.396c1.292,0,2.251,0.379,2.876,1.136
			c0.625,0.758,0.938,1.851,0.938,3.282v6.064h-1.959l-0.188-1.125h-0.062c-0.458,0.389-0.948,0.716-1.469,0.979
			c-0.521,0.264-1.087,0.396-1.698,0.396c-0.903,0-1.636-0.274-2.198-0.823C152.652,18.092,152.37,17.366,152.37,16.463z
			 M154.704,16.275c0,0.458,0.135,0.792,0.406,1c0.271,0.208,0.622,0.313,1.052,0.313c0.417,0,0.799-0.097,1.146-0.292
			c0.347-0.194,0.709-0.472,1.083-0.834V14.17c-0.695,0.083-1.278,0.195-1.75,0.333c-0.472,0.139-0.851,0.295-1.136,0.469
			c-0.285,0.174-0.49,0.372-0.615,0.594C154.767,15.789,154.704,16.025,154.704,16.275z"/>
		<path fill="#04A5C9" d="M163.707,8.982h1.98l0.167,1.813h0.083c0.361-0.667,0.799-1.177,1.313-1.532
			c0.514-0.354,1.042-0.532,1.584-0.532c0.486,0,0.875,0.07,1.167,0.209l-0.417,2.084c-0.181-0.055-0.348-0.097-0.5-0.125
			c-0.153-0.028-0.341-0.042-0.563-0.042c-0.403,0-0.827,0.157-1.271,0.469c-0.445,0.312-0.827,0.858-1.146,1.636v6.251h-2.397
			L163.707,8.982L163.707,8.982z"/>
	</g>
	<g>
		<path fill="#9A9999" d="M56.712,28.494h0.887l1.149,3.184l0.434,1.212h0.036l0.416-1.212l1.14-3.184h0.887v5.935h-0.714v-3.266
			c0-0.266,0.01-0.558,0.032-0.877c0.021-0.32,0.043-0.612,0.068-0.878h-0.036l-0.48,1.321l-1.14,3.103h-0.425l-1.149-3.103
			l-0.471-1.321h-0.036c0.018,0.266,0.039,0.558,0.063,0.878c0.024,0.319,0.036,0.612,0.036,0.877v3.266h-0.696L56.712,28.494
			L56.712,28.494z"/>
		<path fill="#9A9999" d="M67.812,32.62h-2.163l-0.57,1.809h-0.769l2.009-5.935h0.85l2.008,5.935h-0.805L67.812,32.62z
			 M67.622,32.014l-0.28-0.905c-0.109-0.332-0.211-0.662-0.308-0.991c-0.097-0.328-0.193-0.665-0.289-1.008h-0.036
			c-0.09,0.344-0.184,0.68-0.28,1.008c-0.097,0.329-0.199,0.659-0.308,0.991l-0.28,0.905H67.622z"/>
		<path fill="#9A9999" d="M72.697,29.128h-1.791v-0.634h4.343v0.634h-1.791v5.301h-0.76L72.697,29.128L72.697,29.128z"/>
		<path fill="#9A9999" d="M78.126,28.494h3.42v0.634h-2.669v1.864h2.253v0.642h-2.253v2.153h2.76v0.642h-3.51V28.494z"/>
		<path fill="#9A9999" d="M87.959,34.429l-1.429-2.506h-1.077v2.506h-0.751v-5.935h1.854c0.302,0,0.58,0.029,0.837,0.086
			c0.256,0.057,0.476,0.152,0.661,0.285c0.184,0.133,0.327,0.305,0.43,0.516c0.102,0.211,0.154,0.471,0.154,0.778
			c0,0.464-0.121,0.835-0.362,1.113c-0.241,0.278-0.564,0.467-0.968,0.57l1.502,2.587L87.959,34.429L87.959,34.429z M85.453,31.308
			h0.995c0.464,0,0.82-0.095,1.068-0.285c0.247-0.19,0.371-0.478,0.371-0.864c0-0.392-0.124-0.667-0.371-0.823
			c-0.247-0.157-0.603-0.235-1.068-0.235h-0.995V31.308z"/>
		<path fill="#9A9999" d="M91.769,28.494h0.751v5.935h-0.751V28.494z"/>
		<path fill="#9A9999" d="M98.671,32.62h-2.163l-0.57,1.809H95.17l2.009-5.935h0.85l2.008,5.935h-0.805L98.671,32.62z
			 M98.481,32.014l-0.28-0.905c-0.109-0.332-0.211-0.662-0.308-0.991c-0.097-0.328-0.193-0.665-0.289-1.008h-0.036
			c-0.09,0.344-0.184,0.68-0.28,1.008c-0.097,0.329-0.199,0.659-0.308,0.991l-0.28,0.905H98.481z"/>
		<path fill="#9A9999" d="M102.688,28.494h0.751v5.292h2.597v0.642h-3.347L102.688,28.494L102.688,28.494z"/>
		<path fill="#9A9999" d="M112.549,33.136c0.211,0.223,0.46,0.402,0.746,0.538c0.286,0.136,0.583,0.204,0.891,0.204
			c0.392,0,0.697-0.089,0.914-0.267c0.217-0.178,0.326-0.411,0.326-0.701c0-0.151-0.026-0.279-0.077-0.384
			c-0.051-0.106-0.121-0.196-0.208-0.272c-0.088-0.075-0.191-0.143-0.312-0.204c-0.121-0.06-0.25-0.123-0.389-0.19l-0.851-0.371
			c-0.139-0.06-0.28-0.133-0.425-0.217c-0.145-0.084-0.274-0.187-0.389-0.308c-0.115-0.121-0.208-0.263-0.28-0.43
			c-0.072-0.166-0.109-0.357-0.109-0.574c0-0.223,0.047-0.431,0.14-0.624c0.094-0.193,0.223-0.36,0.389-0.502
			c0.166-0.141,0.362-0.252,0.588-0.33c0.227-0.079,0.475-0.118,0.746-0.118c0.356,0,0.685,0.068,0.986,0.204
			c0.302,0.136,0.558,0.312,0.769,0.529l-0.407,0.489c-0.181-0.175-0.382-0.312-0.602-0.411c-0.221-0.1-0.469-0.149-0.746-0.149
			c-0.332,0-0.599,0.077-0.801,0.23c-0.202,0.154-0.303,0.367-0.303,0.638c0,0.145,0.028,0.267,0.086,0.367
			c0.057,0.099,0.134,0.187,0.231,0.262c0.096,0.076,0.202,0.142,0.317,0.199c0.115,0.057,0.232,0.11,0.353,0.158l0.841,0.362
			c0.169,0.072,0.328,0.155,0.479,0.249c0.151,0.093,0.28,0.202,0.389,0.326c0.109,0.123,0.194,0.268,0.258,0.434
			c0.063,0.166,0.095,0.357,0.095,0.574c0,0.235-0.047,0.456-0.14,0.661c-0.093,0.205-0.228,0.384-0.402,0.538
			c-0.175,0.154-0.386,0.275-0.633,0.362c-0.248,0.088-0.528,0.131-0.841,0.131c-0.416,0-0.802-0.079-1.158-0.235
			c-0.356-0.157-0.663-0.371-0.923-0.642L112.549,33.136z"/>
		<path fill="#9A9999" d="M120.221,29.128h-1.791v-0.634h4.343v0.634h-1.791v5.301h-0.76L120.221,29.128L120.221,29.128z"/>
		<path fill="#9A9999" d="M128.001,32.62h-2.163l-0.57,1.809H124.5l2.009-5.935h0.85l2.008,5.935h-0.805L128.001,32.62z
			 M127.811,32.014l-0.28-0.905c-0.109-0.332-0.211-0.662-0.308-0.991c-0.097-0.328-0.193-0.665-0.289-1.008h-0.036
			c-0.09,0.344-0.184,0.68-0.28,1.008c-0.097,0.329-0.199,0.659-0.308,0.991l-0.28,0.905H127.811z"/>
		<path fill="#9A9999" d="M135.275,34.429l-1.429-2.506h-1.077v2.506h-0.751v-5.935h1.854c0.302,0,0.58,0.029,0.837,0.086
			c0.256,0.057,0.476,0.152,0.661,0.285c0.184,0.133,0.327,0.305,0.43,0.516c0.102,0.211,0.154,0.471,0.154,0.778
			c0,0.464-0.121,0.835-0.362,1.113c-0.241,0.278-0.564,0.467-0.968,0.57l1.502,2.587L135.275,34.429L135.275,34.429z
			 M132.769,31.308h0.995c0.464,0,0.82-0.095,1.068-0.285c0.247-0.19,0.371-0.478,0.371-0.864c0-0.392-0.124-0.667-0.371-0.823
			c-0.247-0.157-0.603-0.235-1.068-0.235h-0.995V31.308z"/>
		<path fill="#9A9999" d="M140.133,29.128h-1.791v-0.634h4.343v0.634h-1.791v5.301h-0.76L140.133,29.128L140.133,29.128z"/>
		<path fill="#9A9999" d="M145.562,28.494h3.42v0.634h-2.669v1.864h2.253v0.642h-2.253v2.153h2.76v0.642h-3.51V28.494z"/>
		<path fill="#9A9999" d="M155.395,34.429l-1.429-2.506h-1.077v2.506h-0.751v-5.935h1.854c0.302,0,0.58,0.029,0.837,0.086
			c0.256,0.057,0.476,0.152,0.661,0.285c0.184,0.133,0.327,0.305,0.43,0.516c0.102,0.211,0.154,0.471,0.154,0.778
			c0,0.464-0.121,0.835-0.362,1.113c-0.241,0.278-0.564,0.467-0.968,0.57l1.502,2.587L155.395,34.429L155.395,34.429z
			 M152.889,31.308h0.995c0.464,0,0.82-0.095,1.068-0.285c0.247-0.19,0.371-0.478,0.371-0.864c0-0.392-0.124-0.667-0.371-0.823
			c-0.247-0.157-0.603-0.235-1.068-0.235h-0.995V31.308z"/>
	</g>
</g>
</svg>
