<?xml version="1.0" encoding="iso-8859-1"?>
<!-- Generator: Adobe Illustrator 16.0.0, SVG Export Plug-In . SVG Version: 6.00 Build 0)  -->
<!DOCTYPE svg PUBLIC "-//W3C//DTD SVG 1.1//EN" "http://www.w3.org/Graphics/SVG/1.1/DTD/svg11.dtd">
<svg version="1.1" id="Capa_1" xmlns="http://www.w3.org/2000/svg" xmlns:xlink="http://www.w3.org/1999/xlink" x="0px" y="0px"
	 width="35.033px" height="35.033px" viewBox="0 0 35.033 35.033" style="enable-background:new 0 0 35.033 35.033;"
	 xml:space="preserve">
<g>
	<path d="M11.811,10.535l-6.983,6.984l6.983,6.981c0.78,0.781,0.78,2.048,0,2.828c-0.392,0.392-0.901,0.586-1.414,0.586
		c-0.513,0-1.022-0.194-1.414-0.586l-8.397-8.396C0.211,18.558,0,18.049,0,17.519c0-0.529,0.211-1.039,0.586-1.414l8.397-8.398
		c0.781-0.78,2.047-0.78,2.828,0C12.591,8.488,12.591,9.752,11.811,10.535z M34.447,16.104l-8.396-8.398
		c-0.781-0.78-2.047-0.78-2.828,0c-0.781,0.781-0.781,2.047,0,2.828l6.982,6.984L23.223,24.5c-0.781,0.781-0.781,2.048,0,2.828
		c0.392,0.392,0.902,0.586,1.414,0.586s1.023-0.194,1.414-0.586l8.396-8.396c0.375-0.375,0.586-0.884,0.586-1.414
		C35.033,16.99,34.822,16.479,34.447,16.104z M21.012,3.831c-1.076-0.277-2.161,0.373-2.435,1.441l-6,23.498
		c-0.272,1.07,0.373,2.16,1.442,2.434c0.167,0.043,0.334,0.063,0.497,0.063c0.894,0,1.706-0.603,1.937-1.505l6-23.498
		C22.727,5.193,22.081,4.104,21.012,3.831z"/>
</g>
<g>
</g>
<g>
</g>
<g>
</g>
<g>
</g>
<g>
</g>
<g>
</g>
<g>
</g>
<g>
</g>
<g>
</g>
<g>
</g>
<g>
</g>
<g>
</g>
<g>
</g>
<g>
</g>
<g>
</g>
</svg>
