<?xml version="1.0" encoding="utf-8"?>
<!-- Generator: Adobe Illustrator 17.0.0, SVG Export Plug-In . SVG Version: 6.00 Build 0)  -->
<!DOCTYPE svg PUBLIC "-//W3C//DTD SVG 1.1//EN" "http://www.w3.org/Graphics/SVG/1.1/DTD/svg11.dtd">
<svg version="1.1" id="Capa_1" xmlns="http://www.w3.org/2000/svg" xmlns:xlink="http://www.w3.org/1999/xlink" x="0px" y="0px"
	 width="100px" height="79px" viewBox="0 3.767 100 79" enable-background="new 0 3.767 100 79" xml:space="preserve">
<g>
	<path fill="#FFFFFF" d="M33.714,23.209L13.781,43.273l19.933,20.055c2.226,2.244,2.226,5.883,0,8.124
		c-1.119,1.126-2.572,1.683-4.036,1.683c-1.464,0-2.917-0.557-4.036-1.683L1.673,47.332C0.602,46.257,0,44.795,0,43.273
		c0-1.52,0.602-2.985,1.673-4.062l23.969-24.125c2.229-2.241,5.843-2.241,8.072,0C35.94,17.329,35.94,20.96,33.714,23.209z
		 M98.327,39.208L74.361,15.083c-2.229-2.241-5.843-2.241-8.072,0c-2.229,2.244-2.229,5.88,0,8.124l19.93,20.063l-19.93,20.057
		c-2.229,2.244-2.229,5.883,0,8.124c1.119,1.126,2.575,1.683,4.036,1.683s2.92-0.557,4.036-1.683l23.966-24.12
		c1.07-1.077,1.673-2.54,1.673-4.062C100,41.753,99.398,40.285,98.327,39.208z M59.978,3.951c-3.071-0.796-6.168,1.072-6.951,4.14
		L35.9,75.594c-0.776,3.074,1.065,6.205,4.116,6.992c0.477,0.124,0.953,0.181,1.419,0.181c2.552,0,4.87-1.732,5.529-4.323
		L64.091,10.94C64.873,7.863,63.029,4.735,59.978,3.951z"/>
</g>
</svg>
