<?xml version="1.0" encoding="utf-8"?>
<!-- Generator: Adobe Illustrator 17.0.0, SVG Export Plug-In . SVG Version: 6.00 Build 0)  -->
<!DOCTYPE svg PUBLIC "-//W3C//DTD SVG 1.1//EN" "http://www.w3.org/Graphics/SVG/1.1/DTD/svg11.dtd">
<svg version="1.1" id="Layer_1" xmlns="http://www.w3.org/2000/svg" xmlns:xlink="http://www.w3.org/1999/xlink" x="0px" y="0px"
	 width="535.399px" height="143px" viewBox="0 0 535.399 143" enable-background="new 0 0 535.399 143" xml:space="preserve">
<radialGradient id="SVGID_1_" cx="-679.4621" cy="-343.5" r="420.7527" gradientUnits="userSpaceOnUse">
	<stop  offset="0" style="stop-color:#FFFFFF"/>
	<stop  offset="1" style="stop-color:#F0F5F7"/>
</radialGradient>
<rect x="-1104.425" y="-760" fill="url(#SVGID_1_)" width="849.926" height="833"/>
<text transform="matrix(1 0 0 1 -2691.0151 -619.2296)" fill="#1D1D1B" font-family="'AvenirNext-UltraLight'" font-size="223.7101">L</text>
<text transform="matrix(1 0 0 1 -2660.6953 -619.2294)" fill="#1D1D1B" font-family="'AvenirNext-UltraLight'" font-size="223.7101">A</text>
<g>
	<path fill="#1D1D1B" d="M-3203.512-551.042v-158.387h4.921v153.913h131.746v4.474H-3203.512z"/>
</g>
<g>
	<polyline fill="#1D1D1B" points="-3131.924,-706.297 -3067.945,-551.042 -3062.576,-551.042 -3128.569,-709.428 
		-3134.833,-709.428 -3203.512,-551.042 -3198.143,-551.042 	"/>
</g>
<circle fill="none" stroke="#1D1D1B" stroke-width="15" stroke-miterlimit="10" cx="-2629.101" cy="-198.284" r="178.5"/>
<g>
	<path fill="#1D1D1B" stroke="#1D1D1B" stroke-width="15" stroke-miterlimit="10" d="M-2719.294-137.77l51.466-160.85l13.657,17.704
		l-41.643,126.981h74.431l11.187,16.164H-2719.294z"/>
</g>
<polygon fill="#1D1D1B" stroke="#1D1D1B" stroke-width="15" stroke-miterlimit="10" points="-2537.457,-124 -2558.787,-124 
	-2634.532,-230.832 -2627.62,-250.805 "/>
<g>
	<g>
		<g>
			<path fill="#E84E1B" d="M-1664.162-352.155h-131.686l58.951-184.244l24.811,32.162l-39.654,120.918h66.009L-1664.162-352.155z"/>
		</g>
	</g>
	<g>
		<path fill="#00A4C8" d="M-1589.2-338.386h-39.741l-80.219-113.141l12.937-37.376L-1589.2-338.386z"/>
	</g>
</g>
<text transform="matrix(1 0 0 1 -1937.788 -234.3311)"><tspan x="0" y="0" fill="#E84E1B" font-family="'AvenirNext-DemiBold'" font-size="67.5303">Laravel </tspan><tspan x="241.753" y="0" fill="#00A4C8" font-family="'AvenirNext-DemiBold'" font-size="67.5303">Angular</tspan></text>
<text transform="matrix(1 0 0 1 -1879.4873 -176.1724)" fill="#999999" font-family="'AvenirNext-Regular'" font-size="30.4976">Material Starter</text>
<g>
	<g>
		<g>
			<g>
				<path fill="#E84E1B" d="M-646.146-375.821h-116.25l52.041-162.648l21.902,28.392l-35.006,106.744h58.271L-646.146-375.821z"/>
			</g>
		</g>
		<g>
			<path fill="#00A4C8" d="M-578.205-363.666h-35.083l-70.816-99.879l11.42-32.995L-578.205-363.666z"/>
		</g>
	</g>
</g>
<g>
	<g>
		<g>
			<path fill="#666666" d="M180.94-352.155H49.254l58.951-184.244l24.811,32.162L93.362-383.319h66.009L180.94-352.155z"/>
		</g>
	</g>
	<g>
		<path fill="#999999" d="M257.902-338.386h-39.741l-80.219-113.141l12.937-37.376L257.902-338.386z"/>
	</g>
</g>
<text transform="matrix(1 0 0 1 -50.2042 -234.3311)"><tspan x="0" y="0" fill="#666666" font-family="'SourceSansPro-Regular'" font-size="67.5303">laravel</tspan><tspan x="192.052" y="0" fill="#999999" font-family="'SourceSansPro-Regular'" font-size="67.5303">angular</tspan></text>
<text transform="matrix(1 0 0 1 3.0702 -183.1724)" fill="#999999" font-family="'SourceSansPro-Regular'" font-size="27">Material Starter</text>
<circle fill="#E84E1B" cx="-754.026" cy="186.072" r="13.768"/>
<circle fill="#FFFFFF" stroke="#E5EDE6" stroke-miterlimit="10" cx="-788.513" cy="186.072" r="13.768"/>
<circle fill="#00A4C8" cx="-719.539" cy="186.072" r="13.768"/>
<circle fill="#EF704D" cx="-685.052" cy="186.072" r="13.768"/>
<circle fill="#25C0CC" cx="-650.565" cy="186.072" r="13.768"/>
<circle fill="#999999" cx="-581.591" cy="186.072" r="13.768"/>
<circle fill="#4D4D4D" cx="-547.104" cy="186.072" r="13.768"/>
<circle fill="#EAEAEA" cx="-616.078" cy="186.072" r="13.768"/>
<text transform="matrix(1 0 0 1 -856.871 -271.8076)"><tspan x="0" y="0" fill="#E84E1B" font-family="'SourceSansPro-Semibold'" font-size="59.6147">laravel</tspan><tspan x="176.635" y="0" fill="#00A4C8" font-family="'SourceSansPro-Semibold'" font-size="59.6147">angular</tspan></text>
<text transform="matrix(1 0 0 1 -803.1659 -226.6455)" fill="#999999" font-family="'SourceSansPro-Regular'" font-size="23.8352">Material Starter</text>
<g>
	<g>
		<g>
			<g>
				<path fill="#FFFFFF" d="M-603.126-1277.805h-323.295l144.728-452.33l60.911,78.96l-97.354,296.86h162.055L-603.126-1277.805z"/>
			</g>
		</g>
		<g opacity="0.7">
			<path fill="#FFFFFF" d="M-414.18-1244h-97.567l-196.942-277.767l31.76-91.761L-414.18-1244z"/>
		</g>
	</g>
</g>
<g>
	<g>
		<g>
			<g>
				<path fill="#E84E1B" d="M85.242,127.456H1L38.713,9.59l15.872,20.575l-25.368,77.354h42.227L85.242,127.456z"/>
			</g>
		</g>
		<g>
			<path fill="#00A4C8" d="M134.477,136.265h-25.423L57.736,63.886l8.276-23.911L134.477,136.265z"/>
		</g>
	</g>
</g>
<g>
	<path fill="#E84E1B" d="M129.463,23.655h7.489v38.156c0,0.911,0.173,1.552,0.521,1.921c0.347,0.369,0.716,0.554,1.107,0.554
		c0.173,0,0.335,0,0.489,0c0.151,0,0.379-0.044,0.683-0.131l0.977,5.6c-0.998,0.434-2.322,0.652-3.972,0.652
		c-2.691,0-4.58-0.803-5.665-2.409c-1.085-1.605-1.628-3.798-1.628-6.576V23.655z"/>
	<path fill="#E84E1B" d="M145.741,61.029c0-3.428,1.498-6.076,4.493-7.943c2.996-1.867,7.77-3.169,14.325-3.907
		c0-0.824-0.109-1.617-0.325-2.376c-0.218-0.759-0.554-1.432-1.009-2.019c-0.455-0.586-1.042-1.041-1.758-1.367
		c-0.717-0.325-1.618-0.487-2.703-0.487c-1.606,0-3.157,0.304-4.655,0.911c-1.498,0.609-2.942,1.346-4.33,2.214l-2.735-5.014
		c1.78-1.127,3.765-2.104,5.958-2.93c2.191-0.823,4.568-1.237,7.129-1.237c4.037,0,7.032,1.184,8.986,3.549
		c1.953,2.367,2.93,5.785,2.93,10.255v18.947h-6.121l-0.586-3.516h-0.195c-1.432,1.216-2.963,2.236-4.591,3.06
		s-3.397,1.237-5.306,1.237c-2.822,0-5.111-0.856-6.869-2.572C146.619,66.119,145.741,63.851,145.741,61.029z M153.033,60.443
		c0,1.432,0.423,2.475,1.27,3.125c0.846,0.651,1.942,0.977,3.288,0.977c1.302,0,2.495-0.304,3.581-0.912
		c1.085-0.607,2.214-1.475,3.385-2.605v-7.162c-2.171,0.26-3.993,0.609-5.469,1.042c-1.476,0.434-2.66,0.923-3.549,1.466
		c-0.891,0.543-1.531,1.162-1.921,1.855C153.229,58.925,153.033,59.662,153.033,60.443z"/>
	<path fill="#E84E1B" d="M181.161,37.654h6.186l0.521,5.665h0.26c1.128-2.084,2.496-3.679,4.102-4.786
		c1.605-1.107,3.255-1.661,4.948-1.661c1.52,0,2.735,0.219,3.647,0.652l-1.302,6.511c-0.564-0.173-1.086-0.303-1.563-0.39
		c-0.478-0.086-1.064-0.13-1.758-0.13c-1.26,0-2.583,0.489-3.972,1.466c-1.39,0.976-2.583,2.68-3.581,5.111v19.533h-7.489V37.654z"
		/>
	<path fill="#E84E1B" d="M202.321,61.029c0-3.428,1.498-6.076,4.493-7.943c2.996-1.867,7.77-3.169,14.325-3.907
		c0-0.824-0.109-1.617-0.325-2.376c-0.218-0.759-0.554-1.432-1.009-2.019c-0.455-0.586-1.042-1.041-1.758-1.367
		c-0.717-0.325-1.618-0.487-2.703-0.487c-1.606,0-3.157,0.304-4.655,0.911c-1.498,0.609-2.942,1.346-4.33,2.214l-2.735-5.014
		c1.78-1.127,3.765-2.104,5.958-2.93c2.191-0.823,4.568-1.237,7.129-1.237c4.037,0,7.032,1.184,8.986,3.549
		c1.953,2.367,2.93,5.785,2.93,10.255v18.947h-6.121l-0.586-3.516h-0.195c-1.432,1.216-2.963,2.236-4.591,3.06
		c-1.628,0.824-3.397,1.237-5.306,1.237c-2.822,0-5.111-0.856-6.869-2.572C203.2,66.119,202.321,63.851,202.321,61.029z
		 M209.614,60.443c0,1.432,0.423,2.475,1.27,3.125c0.846,0.651,1.942,0.977,3.288,0.977c1.302,0,2.495-0.304,3.581-0.912
		c1.085-0.607,2.214-1.475,3.385-2.605v-7.162c-2.171,0.26-3.993,0.609-5.469,1.042c-1.476,0.434-2.66,0.923-3.549,1.466
		c-0.891,0.543-1.531,1.162-1.921,1.855C209.81,58.925,209.614,59.662,209.614,60.443z"/>
	<path fill="#E84E1B" d="M233.771,37.654h7.618l5.078,16.604c0.434,1.563,0.88,3.148,1.335,4.753c0.455,1.606,0.9,3.234,1.334,4.883
		h0.26c0.478-1.649,0.933-3.277,1.367-4.883c0.434-1.605,0.89-3.19,1.367-4.753l5.079-16.604h7.227l-10.874,31.97h-8.66
		L233.771,37.654z"/>
	<path fill="#E84E1B" d="M267.499,53.672c0-2.605,0.412-4.948,1.237-7.032c0.823-2.083,1.921-3.841,3.288-5.273
		c1.366-1.432,2.94-2.54,4.72-3.321c1.78-0.781,3.603-1.172,5.47-1.172c2.171,0,4.08,0.37,5.73,1.107
		c1.649,0.739,3.028,1.78,4.135,3.125c1.106,1.346,1.941,2.952,2.507,4.819c0.563,1.867,0.846,3.906,0.846,6.12
		c0,1.476-0.109,2.648-0.325,3.516h-20.315c0.347,2.909,1.356,5.144,3.028,6.707c1.67,1.563,3.809,2.344,6.414,2.344
		c1.389,0,2.679-0.206,3.874-0.619c1.194-0.412,2.376-0.987,3.549-1.726l2.539,4.688c-1.52,0.999-3.213,1.824-5.078,2.475
		c-1.867,0.652-3.821,0.977-5.86,0.977c-2.214,0-4.276-0.381-6.185-1.139c-1.911-0.759-3.582-1.856-5.014-3.288
		s-2.55-3.18-3.353-5.241S267.499,56.32,267.499,53.672z M288.921,50.807c0-2.561-0.532-4.558-1.596-5.99
		c-1.064-1.432-2.702-2.149-4.916-2.149c-1.91,0-3.581,0.684-5.013,2.051c-1.432,1.367-2.323,3.397-2.67,6.088H288.921z"/>
	<path fill="#E84E1B" d="M302.593,23.655h7.489v38.156c0,0.911,0.173,1.552,0.521,1.921c0.347,0.369,0.716,0.554,1.107,0.554
		c0.173,0,0.335,0,0.489,0c0.151,0,0.379-0.044,0.683-0.131l0.977,5.6c-0.998,0.434-2.322,0.652-3.972,0.652
		c-2.691,0-4.58-0.803-5.665-2.409c-1.085-1.605-1.628-3.798-1.628-6.576V23.655z"/>
	<path fill="#00A4C8" d="M318.87,61.029c0-3.428,1.498-6.076,4.493-7.943c2.996-1.867,7.77-3.169,14.325-3.907
		c0-0.824-0.109-1.617-0.325-2.376c-0.218-0.759-0.554-1.432-1.009-2.019c-0.455-0.586-1.042-1.041-1.758-1.367
		c-0.717-0.325-1.618-0.487-2.703-0.487c-1.606,0-3.157,0.304-4.655,0.911c-1.498,0.609-2.942,1.346-4.33,2.214l-2.735-5.014
		c1.78-1.127,3.765-2.104,5.958-2.93c2.191-0.823,4.568-1.237,7.129-1.237c4.037,0,7.032,1.184,8.986,3.549
		c1.953,2.367,2.93,5.785,2.93,10.255v18.947h-6.121l-0.586-3.516h-0.195c-1.432,1.216-2.963,2.236-4.591,3.06
		s-3.397,1.237-5.306,1.237c-2.822,0-5.111-0.856-6.869-2.572C319.749,66.119,318.87,63.851,318.87,61.029z M326.163,60.443
		c0,1.432,0.423,2.475,1.27,3.125c0.846,0.651,1.942,0.977,3.288,0.977c1.302,0,2.495-0.304,3.581-0.912
		c1.085-0.607,2.214-1.475,3.385-2.605v-7.162c-2.171,0.26-3.993,0.609-5.469,1.042c-1.476,0.434-2.66,0.923-3.549,1.466
		c-0.891,0.543-1.531,1.162-1.921,1.855C326.359,58.925,326.163,59.662,326.163,60.443z"/>
	<path fill="#00A4C8" d="M354.291,37.654h6.186l0.521,4.297h0.26c1.432-1.389,2.984-2.582,4.656-3.582
		c1.67-0.997,3.614-1.498,5.827-1.498c3.429,0,5.926,1.098,7.489,3.288c1.563,2.193,2.343,5.329,2.343,9.409v20.054h-7.488V50.546
		c0-2.647-0.39-4.514-1.172-5.6c-0.781-1.085-2.062-1.628-3.841-1.628c-1.39,0-2.616,0.337-3.679,1.009
		c-1.064,0.674-2.269,1.661-3.614,2.963v22.333h-7.489V37.654z"/>
	<path fill="#00A4C8" d="M388.605,75.419c0-1.346,0.39-2.594,1.172-3.744c0.781-1.151,1.909-2.181,3.385-3.092v-0.261
		c-0.826-0.521-1.509-1.215-2.051-2.083c-0.543-0.868-0.814-1.953-0.814-3.255c0-1.259,0.358-2.399,1.074-3.418
		c0.717-1.02,1.531-1.856,2.441-2.508v-0.26c-1.085-0.823-2.05-1.964-2.897-3.418c-0.847-1.454-1.269-3.135-1.269-5.046
		c0-1.823,0.347-3.45,1.041-4.883c0.694-1.432,1.617-2.637,2.768-3.614c1.15-0.977,2.484-1.714,4.004-2.214
		c1.519-0.498,3.125-0.749,4.818-0.749c0.868,0,1.703,0.077,2.508,0.228c0.802,0.153,1.53,0.337,2.181,0.554h11.46v5.535h-5.86
		c0.521,0.608,0.954,1.378,1.301,2.311c0.348,0.934,0.522,1.965,0.522,3.093c0,1.78-0.316,3.343-0.944,4.688
		c-0.63,1.346-1.488,2.475-2.573,3.385c-1.085,0.912-2.366,1.606-3.841,2.084c-1.476,0.478-3.06,0.716-4.754,0.716
		c-0.694,0-1.411-0.065-2.148-0.195c-0.739-0.13-1.476-0.347-2.214-0.651c-0.478,0.434-0.858,0.868-1.139,1.301
		c-0.283,0.435-0.423,1.021-0.423,1.759c0,0.911,0.38,1.628,1.14,2.148c0.758,0.522,2.115,0.782,4.069,0.782h5.665
		c3.863,0,6.782,0.619,8.757,1.856c1.975,1.236,2.963,3.244,2.963,6.022c0,1.563-0.402,3.038-1.204,4.428
		c-0.804,1.389-1.943,2.582-3.419,3.582c-1.476,0.998-3.267,1.791-5.371,2.376c-2.107,0.586-4.461,0.879-7.065,0.879
		c-1.91,0-3.679-0.174-5.306-0.521c-1.628-0.348-3.028-0.869-4.2-1.563c-1.171-0.695-2.094-1.563-2.767-2.605
		C388.941,78.023,388.605,76.807,388.605,75.419z M394.856,74.313c0,1.432,0.726,2.549,2.181,3.352
		c1.454,0.803,3.461,1.205,6.023,1.205c2.605,0,4.698-0.511,6.283-1.531c1.584-1.021,2.376-2.225,2.376-3.614
		c0-1.26-0.489-2.105-1.466-2.54c-0.976-0.434-2.376-0.651-4.199-0.651h-4.362c-1.736,0-3.19-0.153-4.362-0.455
		C395.68,71.338,394.856,72.749,394.856,74.313z M402.278,54.779c1.519,0,2.821-0.554,3.907-1.661
		c1.085-1.107,1.628-2.702,1.628-4.786c0-1.996-0.532-3.549-1.595-4.655c-1.064-1.107-2.377-1.661-3.94-1.661
		s-2.887,0.543-3.971,1.628c-1.086,1.086-1.629,2.648-1.629,4.688c0,2.084,0.543,3.679,1.629,4.786
		C399.391,54.225,400.716,54.779,402.278,54.779z"/>
	<path fill="#00A4C8" d="M424.286,37.654h7.488v19.077c0,2.648,0.391,4.515,1.172,5.6c0.782,1.086,2.04,1.628,3.777,1.628
		c1.389,0,2.614-0.347,3.679-1.041c1.063-0.694,2.203-1.824,3.418-3.386V37.654h7.488v31.97h-6.12l-0.587-4.688h-0.195
		c-1.39,1.65-2.897,2.974-4.526,3.972c-1.628,0.997-3.549,1.498-5.762,1.498c-3.429,0-5.925-1.095-7.488-3.288
		c-1.563-2.192-2.344-5.328-2.344-9.409V37.654z"/>
	<path fill="#00A4C8" d="M460.813,23.655h7.489v38.156c0,0.911,0.173,1.552,0.521,1.921c0.347,0.369,0.716,0.554,1.107,0.554
		c0.173,0,0.335,0,0.488,0c0.151,0,0.379-0.044,0.683-0.131l0.977,5.6c-0.998,0.434-2.322,0.652-3.972,0.652
		c-2.691,0-4.58-0.803-5.665-2.409c-1.085-1.605-1.628-3.798-1.628-6.576V23.655z"/>
	<path fill="#00A4C8" d="M477.091,61.029c0-3.428,1.497-6.076,4.493-7.943c2.996-1.867,7.77-3.169,14.325-3.907
		c0-0.824-0.109-1.617-0.325-2.376c-0.218-0.759-0.554-1.432-1.009-2.019c-0.455-0.586-1.042-1.041-1.758-1.367
		c-0.717-0.325-1.618-0.487-2.703-0.487c-1.606,0-3.157,0.304-4.655,0.911c-1.498,0.609-2.942,1.346-4.33,2.214l-2.735-5.014
		c1.78-1.127,3.765-2.104,5.958-2.93c2.191-0.823,4.568-1.237,7.129-1.237c4.037,0,7.032,1.184,8.986,3.549
		c1.953,2.367,2.93,5.785,2.93,10.255v18.947h-6.121l-0.586-3.516h-0.195c-1.432,1.216-2.963,2.236-4.591,3.06
		s-3.397,1.237-5.306,1.237c-2.822,0-5.111-0.856-6.869-2.572C477.97,66.119,477.091,63.851,477.091,61.029z M484.383,60.443
		c0,1.432,0.423,2.475,1.27,3.125c0.846,0.651,1.942,0.977,3.288,0.977c1.302,0,2.495-0.304,3.581-0.912
		c1.085-0.607,2.214-1.475,3.385-2.605v-7.162c-2.171,0.26-3.993,0.609-5.469,1.042c-1.476,0.434-2.66,0.923-3.549,1.466
		c-0.891,0.543-1.531,1.162-1.921,1.855C484.579,58.925,484.383,59.662,484.383,60.443z"/>
	<path fill="#00A4C8" d="M512.512,37.654h6.186l0.521,5.665h0.26c1.128-2.084,2.496-3.679,4.102-4.786
		c1.605-1.107,3.255-1.661,4.948-1.661c1.52,0,2.735,0.219,3.647,0.652l-1.302,6.511c-0.564-0.173-1.086-0.303-1.563-0.39
		c-0.478-0.086-1.064-0.13-1.758-0.13c-1.26,0-2.583,0.489-3.972,1.466c-1.39,0.976-2.583,2.68-3.581,5.111v19.533h-7.489V37.654z"
		/>
</g>
<g>
	<path fill="#999999" d="M186.199,98.596h2.551l3.305,9.163l1.25,3.489h0.103l1.198-3.489l3.28-9.163h2.551v17.078h-2.056v-9.398
		c0-0.764,0.03-1.605,0.092-2.525c0.06-0.92,0.125-1.762,0.195-2.526h-0.105l-1.38,3.801l-3.28,8.929h-1.223l-3.307-8.929
		l-1.354-3.801h-0.103c0.051,0.764,0.112,1.605,0.181,2.526c0.069,0.919,0.105,1.761,0.105,2.525v9.398h-2.004V98.596z"/>
	<path fill="#999999" d="M218.141,110.468h-6.223l-1.639,5.206h-2.213l5.78-17.078h2.447l5.779,17.078h-2.317L218.141,110.468z
		 M217.594,108.724l-0.806-2.604c-0.313-0.955-0.608-1.905-0.885-2.851c-0.278-0.945-0.556-1.914-0.833-2.902h-0.105
		c-0.26,0.989-0.529,1.957-0.806,2.902c-0.278,0.946-0.573,1.896-0.885,2.851l-0.807,2.604H217.594z"/>
	<path fill="#999999" d="M232.199,100.419h-5.155v-1.823h12.496v1.823h-5.155v15.255h-2.187V100.419z"/>
	<path fill="#999999" d="M247.82,98.596h9.841v1.823h-7.681v5.363h6.483v1.847h-6.483v6.196h7.941v1.848H247.82V98.596z"/>
	<path fill="#999999" d="M276.116,115.674l-4.113-7.211h-3.099v7.211h-2.16V98.596h5.336c0.868,0,1.67,0.083,2.408,0.247
		c0.737,0.165,1.371,0.438,1.901,0.82c0.529,0.382,0.941,0.877,1.236,1.484c0.294,0.608,0.443,1.354,0.443,2.239
		c0,1.336-0.348,2.404-1.042,3.202c-0.693,0.799-1.622,1.345-2.785,1.64l4.322,7.445H276.116z M268.905,106.693h2.864
		c1.336,0,2.36-0.274,3.072-0.82c0.711-0.547,1.068-1.375,1.068-2.486c0-1.127-0.356-1.918-1.068-2.369
		c-0.711-0.451-1.735-0.677-3.072-0.677h-2.864V106.693z"/>
	<path fill="#999999" d="M287.077,98.596h2.16v17.078h-2.16V98.596z"/>
	<path fill="#999999" d="M306.94,110.468h-6.223l-1.639,5.206h-2.213l5.78-17.078h2.447l5.779,17.078h-2.317L306.94,110.468z
		 M306.393,108.724l-0.806-2.604c-0.313-0.955-0.608-1.905-0.885-2.851c-0.278-0.945-0.556-1.914-0.833-2.902h-0.105
		c-0.26,0.989-0.529,1.957-0.806,2.902c-0.278,0.946-0.573,1.896-0.885,2.851l-0.807,2.604H306.393z"/>
	<path fill="#999999" d="M318.498,98.596h2.16v15.229h7.472v1.848h-9.632V98.596z"/>
	<path fill="#999999" d="M346.873,111.951c0.608,0.642,1.324,1.158,2.148,1.549s1.679,0.586,2.564,0.586
		c1.128,0,2.005-0.255,2.629-0.768c0.625-0.511,0.938-1.184,0.938-2.017c0-0.434-0.074-0.803-0.222-1.106
		c-0.147-0.304-0.347-0.564-0.598-0.782c-0.252-0.217-0.551-0.412-0.898-0.586c-0.348-0.173-0.72-0.355-1.119-0.546l-2.448-1.068
		c-0.399-0.174-0.806-0.382-1.223-0.625c-0.416-0.243-0.789-0.538-1.119-0.885c-0.331-0.347-0.599-0.758-0.807-1.236
		c-0.208-0.477-0.313-1.028-0.313-1.653c0-0.642,0.134-1.24,0.403-1.796c0.27-0.556,0.642-1.037,1.12-1.445
		c0.477-0.407,1.041-0.724,1.692-0.949c0.652-0.226,1.367-0.339,2.148-0.339c1.024,0,1.97,0.195,2.837,0.586
		c0.868,0.391,1.605,0.898,2.213,1.523l-1.171,1.406c-0.521-0.503-1.099-0.898-1.731-1.184c-0.635-0.287-1.35-0.43-2.148-0.43
		c-0.955,0-1.723,0.221-2.304,0.663s-0.872,1.055-0.872,1.836c0,0.417,0.082,0.768,0.247,1.055c0.165,0.286,0.386,0.538,0.664,0.754
		c0.277,0.218,0.581,0.409,0.911,0.573c0.33,0.165,0.668,0.317,1.015,0.455l2.421,1.042c0.485,0.208,0.945,0.447,1.379,0.716
		c0.434,0.269,0.807,0.581,1.12,0.938c0.313,0.355,0.559,0.772,0.741,1.249c0.182,0.478,0.274,1.028,0.274,1.653
		c0,0.677-0.135,1.311-0.404,1.901c-0.269,0.59-0.655,1.106-1.158,1.549c-0.503,0.443-1.11,0.79-1.822,1.041
		c-0.713,0.252-1.519,0.378-2.421,0.378c-1.198,0-2.308-0.226-3.332-0.676c-1.025-0.451-1.909-1.068-2.656-1.848L346.873,111.951z"
		/>
	<path fill="#999999" d="M368.95,100.419h-5.155v-1.823h12.496v1.823h-5.155v15.255h-2.187V100.419z"/>
	<path fill="#999999" d="M391.338,110.468h-6.223l-1.639,5.206h-2.213l5.78-17.078h2.447l5.779,17.078h-2.317L391.338,110.468z
		 M390.791,108.724l-0.806-2.604c-0.313-0.955-0.608-1.905-0.885-2.851c-0.278-0.945-0.556-1.914-0.833-2.902h-0.105
		c-0.26,0.989-0.529,1.957-0.806,2.902c-0.278,0.946-0.573,1.896-0.885,2.851l-0.807,2.604H390.791z"/>
	<path fill="#999999" d="M412.268,115.674l-4.113-7.211h-3.099v7.211h-2.16V98.596h5.336c0.868,0,1.67,0.083,2.408,0.247
		c0.737,0.165,1.371,0.438,1.901,0.82c0.529,0.382,0.941,0.877,1.236,1.484c0.294,0.608,0.443,1.354,0.443,2.239
		c0,1.336-0.348,2.404-1.042,3.202c-0.693,0.799-1.622,1.345-2.785,1.64l4.322,7.445H412.268z M405.057,106.693h2.864
		c1.336,0,2.36-0.274,3.072-0.82c0.711-0.547,1.068-1.375,1.068-2.486c0-1.127-0.356-1.918-1.068-2.369
		c-0.711-0.451-1.735-0.677-3.072-0.677h-2.864V106.693z"/>
	<path fill="#999999" d="M426.248,100.419h-5.155v-1.823h12.496v1.823h-5.155v15.255h-2.187V100.419z"/>
	<path fill="#999999" d="M441.869,98.596h9.841v1.823h-7.681v5.363h6.483v1.847h-6.483v6.196h7.941v1.848h-10.101V98.596z"/>
	<path fill="#999999" d="M470.166,115.674l-4.113-7.211h-3.099v7.211h-2.16V98.596h5.336c0.868,0,1.67,0.083,2.408,0.247
		c0.737,0.165,1.371,0.438,1.901,0.82c0.529,0.382,0.941,0.877,1.236,1.484c0.294,0.608,0.443,1.354,0.443,2.239
		c0,1.336-0.348,2.404-1.042,3.202c-0.693,0.799-1.622,1.345-2.785,1.64l4.322,7.445H470.166z M462.955,106.693h2.864
		c1.336,0,2.36-0.274,3.072-0.82c0.711-0.547,1.068-1.375,1.068-2.486c0-1.127-0.356-1.918-1.068-2.369
		c-0.711-0.451-1.735-0.677-3.072-0.677h-2.864V106.693z"/>
</g>
</svg>
